<?xml version="1.0" encoding="utf-8"?>
<svg viewBox="-204.8641 -243.9893 939.0671 938.3293" xmlns="http://www.w3.org/2000/svg">
  <path fill="#161717" opacity="1.000000" stroke="none" d="M -116.994 443.381 C -142.664 421.888 -162.762 396.435 -177.158 366.603 C -189.256 341.535 -196.902 315.129 -201.17 287.581 C -204.22 267.894 -205.133 248.173 -204.799 228.36 C -204.285 197.877 -199.558 167.974 -189.849 139.074 C -176.744 100.067 -155.839 65.754 -125.593 37.554 C -107.302 20.501 -86.538 7.109 -63.588 -2.951 C -47.181 -10.143 -30.153 -15.198 -12.653 -18.763 C -7.443 -19.825 -2.145 -20.458 3.113 -21.286 C 6.361 -21.797 7.746 -23.632 8.276 -26.965 C 10.703 -42.224 12.704 -57.602 16.183 -72.631 C 21.094 -93.843 29.768 -113.694 41.179 -132.285 C 54.631 -154.199 71.197 -173.415 91.394 -189.375 C 117.875 -210.3 147.437 -225.357 180.116 -233.693 C 196.03 -237.752 212.278 -241.264 228.585 -242.818 C 246.564 -244.53 264.784 -243.777 282.9 -243.98 C 301.35 -244.187 319.384 -240.92 337.248 -236.795 C 383.705 -226.068 424.789 -205.075 458.704 -171.252 C 480.399 -149.616 497.349 -124.511 507.853 -95.619 C 513.235 -80.815 517.034 -65.411 521.031 -50.142 C 522.377 -45 524.24 -42.382 529.925 -41.406 C 569.166 -34.669 605.047 -19.641 636.646 4.642 C 656.554 19.941 673.339 38.382 687.239 59.449 C 704.494 85.601 716.468 114.019 724.037 144.272 C 729.173 164.797 731.976 185.704 733.352 206.895 C 735.426 238.834 733.729 270.523 728.045 301.889 C 721.742 336.67 710.329 369.715 692.09 400.321 C 679.774 420.989 664.804 439.356 647.191 455.532 C 629.159 472.093 608.828 485.507 586.18 494.838 C 572.229 500.586 557.647 504.833 543.258 509.474 C 539.699 510.622 538.213 512.825 537.312 516.072 C 531.031 538.71 521.538 559.936 508.895 579.724 C 492.835 604.861 472.585 626.003 448.198 643.232 C 420.783 662.599 390.592 675.783 358.151 683.927 C 337.609 689.083 316.728 691.9 295.566 693.456 C 271.857 695.199 248.256 694.199 224.759 691.899 C 201.207 689.593 178.108 684.336 155.582 676.829 C 129.975 668.296 106.074 656.431 84.026 640.821 C 62.336 625.466 43.97 606.846 28.716 585.115 C 10.286 558.86 -1.915 529.866 -8.87 498.657 C -10.182 492.767 -12.981 489.966 -18.928 488.939 C -42.632 484.845 -64.811 476.138 -85.709 464.529 C -96.569 458.497 -106.415 450.637 -116.994 443.381 M 201.628 594.235 C 219.632 600.186 238.325 602.966 257.072 603.959 C 290.879 605.749 323.895 601.082 355.174 587.356 C 375.715 578.343 393.958 565.82 408.725 548.871 C 431.26 523.008 444.493 492.939 447.358 458.592 C 449.79 429.428 448.191 400.714 437.609 372.979 C 426.008 342.571 407.289 317.737 380.785 298.739 C 354.392 279.821 323.322 272.947 292.95 264.233 C 290.187 263.441 288.513 264.435 287.736 267.261 C 286.588 271.436 285.307 275.575 284.024 279.712 C 278.108 298.785 273.085 318.198 266.024 336.838 C 256.062 363.134 241.66 387.05 223.593 408.795 C 207.129 428.611 187.974 445.146 166.171 458.693 C 145.497 471.538 123.236 480.648 99.635 486.579 C 93.651 488.083 93.136 489.253 95.327 495.06 C 102.008 512.772 110.591 529.32 122.992 543.914 C 143.941 568.568 170.302 584.479 201.628 594.235 M 94.738 185.154 C 83.793 174.253 72.258 163.873 62.033 152.334 C 44.855 132.95 32.78 110.329 23.462 86.252 C 20.402 78.343 19.083 77.194 11.117 78.602 C -17.64 83.685 -43.699 94.472 -65.679 114.293 C -91.467 137.55 -106.032 166.921 -112.57 200.457 C -117.062 223.494 -116.991 246.654 -113.2 269.985 C -108.083 301.482 -95.748 329.36 -73.838 352.518 C -59.972 367.173 -43.262 377.915 -24.227 385.242 C 2.307 395.456 29.715 397.464 57.35 393.564 C 80.431 390.307 102.088 382.055 121.249 368.135 C 147.417 349.125 165.537 324.078 176.089 293.748 C 182.044 276.634 186.494 258.999 191.749 241.637 C 193.023 237.427 192.007 235.416 187.594 233.972 C 176.846 230.456 166.054 226.874 155.727 222.306 C 134.031 212.708 113.632 200.802 94.738 185.154 M 620.985 133.918 C 612.157 118.091 601.139 104.037 587.493 92.042 C 573.705 79.922 558.245 70.576 541.052 64.285 C 525.534 58.607 509.663 54.051 492.93 54.064 C 478.481 54.075 463.829 53.001 449.624 54.979 C 420.182 59.078 393.09 69.756 369.577 88.618 C 345.278 108.11 328.316 132.633 317.876 161.889 C 316.166 166.681 317.707 168.467 322.126 169.723 C 337.495 174.093 352.868 178.468 368.111 183.252 C 405.402 194.956 438.381 214.291 467.045 240.77 C 491.577 263.433 510.12 290.492 523.953 320.852 C 534.951 344.988 541.594 370.321 545.191 396.522 C 545.794 400.913 547.143 401.578 551.785 399.368 C 566.327 392.446 579.508 383.502 591.118 372.325 C 619.523 344.982 634.35 310.673 640.714 272.545 C 644.553 249.546 645.527 226.321 642.293 202.919 C 638.972 178.898 632.549 156.056 620.985 133.918 M 107.667 11.172 C 110.655 41.752 121.968 68.939 141.983 92.17 C 161.15 114.416 185.541 129.003 213.311 138.103 C 220.257 140.379 220.578 139.678 223.324 132.886 C 229.366 117.946 235.122 102.793 242.523 88.52 C 257.462 59.707 277.662 34.908 302.688 14.061 C 321.506 -1.614 341.893 -14.8 364.701 -23.604 C 381.109 -29.938 398.172 -34.588 414.997 -39.813 C 418.64 -40.944 420.493 -42.468 419.331 -46.57 C 411.421 -74.492 397.406 -98.696 375.347 -117.79 C 347.406 -141.975 314.06 -152.972 277.847 -155.552 C 252.762 -157.34 228.005 -154.502 203.984 -146.32 C 174.377 -136.234 149.966 -119.058 132.043 -93.372 C 110.262 -62.159 103.941 -27.061 107.667 11.172 Z"/>
</svg>