<svg width="329" height="31" viewBox="0 0 329 31" fill="none" xmlns="http://www.w3.org/2000/svg">
<path d="M0.64 30V0.799999H3.84V27.12H17.28V30H0.64ZM22.1844 30L29.9044 0.799999H34.1044L41.7844 30H38.5844L36.5444 22.08H27.4244L25.4244 30H22.1844ZM28.0644 19.36H35.8644L33.3844 9.6C32.9844 7.97333 32.6644 6.61333 32.4244 5.52C32.1844 4.4 32.0377 3.68 31.9844 3.36C31.931 3.68 31.7844 4.4 31.5444 5.52C31.3044 6.61333 30.9844 7.97333 30.5844 9.6L28.0644 19.36ZM55.9688 30.4C53.3554 30.4 51.3288 29.6533 49.8888 28.16C48.4754 26.6667 47.7688 24.6533 47.7688 22.12V0.799999H50.9288V22.12C50.9288 23.8 51.3554 25.1333 52.2088 26.12C53.0621 27.08 54.3154 27.56 55.9688 27.56C57.6221 27.56 58.8754 27.08 59.7288 26.12C60.5821 25.1333 61.0088 23.8 61.0088 22.12V0.799999H64.1687V22.12C64.1687 24.68 63.4621 26.7067 62.0488 28.2C60.6354 29.6667 58.6088 30.4 55.9688 30.4ZM71.7531 30V0.799999H75.9931L85.3931 26.32C85.3665 25.7067 85.3265 24.96 85.2731 24.08C85.2198 23.1733 85.1665 22.2533 85.1131 21.32C85.0865 20.3867 85.0731 19.5467 85.0731 18.8V0.799999H88.1531V30H83.8731L74.5531 4.48C74.6065 5.01333 74.6465 5.70667 74.6731 6.56C74.6998 7.38667 74.7265 8.28 74.7531 9.24C74.8065 10.1733 74.8331 11.0933 74.8331 12V30H71.7531ZM104.138 30.4C102.404 30.4 100.898 30.0667 99.6175 29.4C98.3642 28.7333 97.3908 27.7733 96.6975 26.52C96.0042 25.2667 95.6575 23.8 95.6575 22.12V8.68C95.6575 6.97333 96.0042 5.50667 96.6975 4.28C97.3908 3.02667 98.3642 2.06666 99.6175 1.4C100.898 0.733333 102.404 0.4 104.138 0.4C105.844 0.4 107.324 0.746666 108.578 1.44C109.858 2.10667 110.844 3.06667 111.538 4.32C112.231 5.57333 112.578 7.06667 112.578 8.8H109.418C109.418 7.04 108.951 5.68 108.018 4.72C107.084 3.73333 105.791 3.24 104.138 3.24C102.484 3.24 101.178 3.72 100.218 4.68C99.2842 5.61333 98.8175 6.94666 98.8175 8.68V22.12C98.8175 23.8267 99.2842 25.16 100.218 26.12C101.178 27.08 102.484 27.56 104.138 27.56C105.791 27.56 107.084 27.08 108.018 26.12C108.951 25.1333 109.418 23.76 109.418 22H112.578C112.578 23.7067 112.231 25.2 111.538 26.48C110.844 27.7333 109.858 28.7067 108.578 29.4C107.324 30.0667 105.844 30.4 104.138 30.4ZM119.842 30V0.799999H123.002V13.44H132.842V0.799999H136.002V30H132.842V16.36H123.002V30H119.842ZM144.266 30V27.12H150.306V3.68H144.266V0.799999H159.546V3.68H153.546V27.12H159.546V30H144.266ZM167.691 30V0.799999H171.931L181.331 26.32C181.304 25.7067 181.264 24.96 181.211 24.08C181.157 23.1733 181.104 22.2533 181.051 21.32C181.024 20.3867 181.011 19.5467 181.011 18.8V0.799999H184.091V30H179.811L170.491 4.48C170.544 5.01333 170.584 5.70667 170.611 6.56C170.637 7.38667 170.664 8.28 170.691 9.24C170.744 10.1733 170.771 11.0933 170.771 12V30H167.691ZM200.075 30.4C198.342 30.4 196.835 30.0667 195.555 29.4C194.302 28.7333 193.328 27.7733 192.635 26.52C191.942 25.2667 191.595 23.8 191.595 22.12V8.68C191.595 6.97333 191.942 5.50667 192.635 4.28C193.328 3.02667 194.302 2.06666 195.555 1.4C196.835 0.733333 198.342 0.4 200.075 0.4C201.782 0.4 203.262 0.746666 204.515 1.44C205.795 2.10667 206.782 3.06667 207.475 4.32C208.168 5.57333 208.515 7.06667 208.515 8.8H205.355C205.355 7.04 204.888 5.68 203.955 4.72C203.022 3.73333 201.728 3.24 200.075 3.24C198.422 3.24 197.115 3.72 196.155 4.68C195.222 5.61333 194.755 6.94666 194.755 8.68V22.12C194.755 23.8267 195.222 25.16 196.155 26.12C197.115 27.08 198.422 27.56 200.075 27.56C201.728 27.56 203.022 27.08 203.955 26.12C204.888 25.1333 205.355 23.76 205.355 22V18.2H199.155V15.28H208.515V22C208.515 23.7067 208.168 25.2 207.475 26.48C206.782 27.7333 205.795 28.7067 204.515 29.4C203.262 30.0667 201.782 30.4 200.075 30.4ZM239.564 30V26.72L248.564 17.28C250.164 15.6 251.337 14.08 252.084 12.72C252.83 11.36 253.204 10.04 253.204 8.76C253.204 7.05333 252.71 5.70667 251.724 4.72C250.764 3.70667 249.444 3.2 247.764 3.2C246.004 3.2 244.604 3.70667 243.564 4.72C242.55 5.73333 242.044 7.12 242.044 8.88H238.844C238.897 7.14667 239.297 5.64 240.044 4.36C240.79 3.08 241.817 2.10667 243.124 1.44C244.457 0.746666 246.004 0.4 247.764 0.4C249.524 0.4 251.044 0.733333 252.324 1.4C253.63 2.06666 254.63 3.02667 255.324 4.28C256.017 5.50667 256.364 6.98667 256.364 8.72C256.364 10.4 255.91 12.08 255.004 13.76C254.097 15.44 252.644 17.32 250.644 19.4L243.044 27.12H256.924V30H239.564ZM271.828 30.4C270.068 30.4 268.535 30.0533 267.228 29.36C265.921 28.64 264.908 27.64 264.188 26.36C263.495 25.0533 263.148 23.5333 263.148 21.8V9C263.148 7.24 263.495 5.72 264.188 4.44C264.908 3.16 265.921 2.17333 267.228 1.48C268.535 0.759999 270.068 0.4 271.828 0.4C273.615 0.4 275.148 0.759999 276.428 1.48C277.735 2.17333 278.735 3.16 279.428 4.44C280.148 5.72 280.508 7.24 280.508 9V21.8C280.508 23.56 280.148 25.08 279.428 26.36C278.735 27.64 277.735 28.64 276.428 29.36C275.121 30.0533 273.588 30.4 271.828 30.4ZM271.828 27.6C273.508 27.6 274.841 27.0667 275.828 26C276.841 24.9333 277.348 23.5333 277.348 21.8V9C277.348 7.26667 276.841 5.86667 275.828 4.8C274.841 3.73333 273.508 3.2 271.828 3.2C270.148 3.2 268.801 3.73333 267.788 4.8C266.801 5.86667 266.308 7.26667 266.308 9V21.8C266.308 23.5333 266.801 24.9333 267.788 26C268.801 27.0667 270.148 27.6 271.828 27.6ZM271.828 17.64C271.135 17.64 270.575 17.4267 270.148 17C269.748 16.5467 269.548 15.9733 269.548 15.28C269.548 14.5867 269.748 14.04 270.148 13.64C270.575 13.2133 271.135 13 271.828 13C272.521 13 273.068 13.2133 273.468 13.64C273.895 14.04 274.108 14.5867 274.108 15.28C274.108 15.9733 273.895 16.5467 273.468 17C273.068 17.4267 272.521 17.64 271.828 17.64ZM287.533 30V26.72L296.533 17.28C298.133 15.6 299.306 14.08 300.053 12.72C300.799 11.36 301.173 10.04 301.173 8.76C301.173 7.05333 300.679 5.70667 299.693 4.72C298.733 3.70667 297.413 3.2 295.733 3.2C293.973 3.2 292.573 3.70667 291.533 4.72C290.519 5.73333 290.013 7.12 290.013 8.88H286.813C286.866 7.14667 287.266 5.64 288.013 4.36C288.759 3.08 289.786 2.10667 291.093 1.44C292.426 0.746666 293.973 0.4 295.733 0.4C297.493 0.4 299.013 0.733333 300.293 1.4C301.599 2.06666 302.599 3.02667 303.293 4.28C303.986 5.50667 304.333 6.98667 304.333 8.72C304.333 10.4 303.879 12.08 302.973 13.76C302.066 15.44 300.613 17.32 298.613 19.4L291.013 27.12H304.893V30H287.533ZM319.757 30.4C317.384 30.4 315.45 29.7867 313.957 28.56C312.464 27.3067 311.597 25.6267 311.357 23.52H314.517C314.65 24.8 315.17 25.8 316.077 26.52C316.984 27.2133 318.21 27.56 319.757 27.56C321.49 27.56 322.81 27.08 323.717 26.12C324.624 25.1333 325.077 23.7467 325.077 21.96V19.16C325.077 17.4 324.624 16.04 323.717 15.08C322.837 14.0933 321.53 13.6 319.797 13.6C318.677 13.6 317.704 13.9067 316.877 14.52C316.05 15.1067 315.464 15.92 315.117 16.96H311.957L312.157 0.799999H327.277V3.68H315.237L315.117 14.08H316.157L315.077 15.2C315.077 13.84 315.597 12.7733 316.637 12C317.677 11.2 319.064 10.8 320.797 10.8C323.17 10.7733 324.997 11.5067 326.277 13C327.584 14.4667 328.237 16.52 328.237 19.16V21.96C328.237 24.5467 327.49 26.6 325.997 28.12C324.504 29.64 322.424 30.4 319.757 30.4Z" fill="white"/>
</svg>
