<svg width="492" height="122" viewBox="0 0 492 122" fill="none" xmlns="http://www.w3.org/2000/svg">
<g clip-path="url(#clip0_61_66)">
<path d="M9.43734 122H45.0895C47.8159 122 50.0179 121.473 51.8005 120.365C53.6356 119.257 54.4744 116.884 54.4744 115.196V60.2879C54.4744 58.6001 53.5831 55.8046 51.7481 54.5914C49.913 53.431 47.7634 52.8508 45.0895 52.8508H19.2417V11.7622H35.2852V46.9961H54.5269V6.59317C54.5269 4.95806 53.6356 2.74276 51.8005 1.63511C49.9655 0.527454 47.7634 0 45.0895 0H9.43734C6.711 0 4.50895 0.527454 2.72634 1.63511C0.891304 2.74276 0 4.90532 0 6.59317V57.7034C0 59.3385 0.891304 61.8703 2.72634 62.978C4.56138 64.0856 6.76343 64.6131 9.43734 64.6131H35.2852V110.238H19.2417V70.3096H0V115.196C0 116.831 0.891304 119.257 2.72634 120.365C4.56138 121.473 6.76343 122 9.43734 122Z" fill="white"/>
<path d="M127.404 122V60.4989C127.404 58.8111 126.513 56.0156 124.678 54.8024C122.843 53.642 120.693 53.0618 118.019 53.0618H92.1716V46.9961H118.019C120.693 46.9961 122.895 46.4159 124.73 45.2555C126.565 44.0424 127.457 41.0359 127.457 39.348V6.59317C127.457 4.95806 126.565 2.74276 124.73 1.63511C122.895 0.527454 120.693 0 118.019 0H72.9299V122H92.1716V64.824H108.215V122H127.457H127.404ZM92.1192 11.7622H108.163V35.2339H92.1192V11.7622Z" fill="white"/>
<path d="M145.807 115.196C145.807 116.831 146.698 119.257 148.533 120.365C150.369 121.473 152.571 122 155.244 122H190.897C193.623 122 195.825 121.473 197.608 120.365C199.443 119.257 200.282 116.884 200.282 115.196V74.6874H181.04V110.238H164.996V11.7622H181.04V43.2512H200.282V6.80415C200.282 5.1163 199.39 2.90099 197.555 1.7406C195.72 0.580199 193.571 0 190.897 0H155.244C152.571 0 150.369 0.580199 148.586 1.7406C146.751 2.95374 145.807 5.6965 145.807 7.38435V115.196Z" fill="white"/>
<path d="M273.263 122V0H254.021V53.1146H237.978V0H218.736V122H237.978V64.8768H254.021V122H273.263Z" fill="white"/>
<path d="M346.141 46.9434V0H291.666V122H346.141V70.6788H326.951V110.238H310.856V64.6131H346.141V52.9036H310.856V11.7622H326.951V46.9434H346.141Z" fill="white"/>
<path d="M399.881 122H419.123V60.4989C419.123 58.8111 418.232 56.0156 416.344 54.8024C414.509 53.642 412.36 53.0618 409.686 53.0618H383.838V46.9961H409.686C412.36 46.9961 414.562 46.4159 416.397 45.2555C418.232 44.0424 419.123 41.3524 419.123 39.6645V6.59317C419.123 4.95806 418.232 2.74276 416.449 1.63511C414.614 0.527454 412.412 0 409.738 0H364.649V122H383.89V64.824H399.934V122H399.881ZM383.785 11.7622H399.829V35.2339H383.785V11.7622Z" fill="white"/>
<path d="M446.91 122H482.562C485.289 122 487.491 121.473 489.273 120.365C491.108 119.257 491.947 116.884 491.947 115.196V60.2879C491.947 58.6001 491.056 55.8046 489.221 54.5914C487.386 53.431 485.236 52.8508 482.562 52.8508H456.715V11.7622H472.758V46.9961H492V6.59317C492 4.95806 491.108 2.74276 489.273 1.63511C487.438 0.527454 485.236 0 482.562 0H446.91C444.184 0 441.982 0.527454 440.199 1.63511C438.364 2.74276 437.473 4.90532 437.473 6.59317V57.7034C437.473 59.3385 438.364 61.8703 440.199 62.978C442.034 64.0856 444.236 64.6131 446.91 64.6131H472.758V110.238H456.715V70.3096H437.473V115.196C437.473 116.831 438.364 119.257 440.199 120.365C442.034 121.473 444.236 122 446.91 122Z" fill="white"/>
</g>
<defs>
<clipPath id="clip0_61_66">
<rect width="492" height="122" fill="white"/>
</clipPath>
</defs>
</svg>
