<svg width="542" height="148" viewBox="0 0 542 148" fill="none" xmlns="http://www.w3.org/2000/svg">
<g clip-path="url(#clip0_61_46)">
<path d="M145.569 68.5652V37.9246C145.569 36.884 144.76 36.0746 143.72 36.0746H111.647V70.4152H143.72C144.76 70.4152 145.569 69.6059 145.569 68.5652Z" fill="black"/>
<path d="M431.797 68.5652V37.9246C431.797 36.884 430.988 36.0746 429.948 36.0746H397.875V70.4152H429.948C430.988 70.4152 431.797 69.6059 431.797 68.5652Z" fill="black"/>
<path d="M364.762 0H18.608C8.32157 0 0 8.325 0 18.6156V129.442C0 139.733 8.32157 148.058 18.608 148.058H523.45C533.736 148.058 542.058 139.733 542.058 129.442V18.6156C542.058 8.325 533.736 0 523.45 0H364.762ZM84.0247 100.073C84.0247 106.202 82.4067 110.711 79.1705 113.659C75.9343 116.608 71.0801 118.053 64.5499 117.938L28.8943 117.359V107.184H70.0977C71.1379 107.184 71.9469 106.375 71.9469 105.334V78.8563C71.9469 77.8156 71.1379 77.0062 70.0977 77.0062H47.2133C40.741 77.0062 35.829 75.6766 32.5928 73.0172C29.3566 70.3578 27.7386 65.9641 27.7386 59.8359V44.1109C27.7386 38.2141 29.4144 33.6469 32.824 30.525C36.2335 27.4031 41.1455 25.8422 47.6179 25.9578L81.3665 26.5359V36.7109H41.5501C40.5099 36.7109 39.7008 37.5203 39.7008 38.5609V64.6344C39.7008 65.675 40.5099 66.4844 41.5501 66.4844H64.0299C70.5022 66.4844 75.472 67.8719 78.8238 70.7047C82.2333 73.5375 83.9092 77.8734 83.9092 83.8281V100.131L84.0247 100.073ZM148.575 117.359L136.555 81.9781C136.266 81.4 135.977 80.9953 135.746 80.7063C135.514 80.4172 134.937 80.3016 134.128 80.3016H111.648L111.763 117.417H99.8588V26.4781L138.057 25.9C144.529 25.7844 149.384 27.2297 152.678 30.1781C155.914 33.1266 157.532 37.6938 157.532 43.7641V62.0906C157.532 67.525 156.145 71.7453 153.371 74.7516C151.349 76.9484 148.517 78.5094 144.876 79.3187C145.454 79.7234 146.032 80.1281 146.494 80.6484C147.823 82.2672 149.037 84.6375 150.077 87.8172L160.364 117.302H148.459L148.575 117.359ZM224.278 37.0578H187.755C186.831 37.0578 186.311 37.4625 186.311 38.3297V105.508C186.311 106.375 186.773 106.78 187.755 106.78H224.278V117.359H192.667C186.368 117.359 181.745 116.087 178.798 113.544C175.851 111 174.348 106.837 174.348 100.998V42.7812C174.348 36.8844 175.851 32.6641 178.798 30.1781C181.745 27.6922 186.368 26.4781 192.667 26.4781H224.278V37.0578ZM299.403 117.359H287.788V76.2547H249.127V117.359H237.511V26.4781H249.127V66.1375H287.788V26.4781H299.403V117.417V117.359ZM368.923 117.359H332.169C324.426 117.359 318.127 111.058 318.127 103.311V39.775C318.127 32.4328 324.079 26.4203 331.476 26.4203H368.229V36.5953H329.742V66.0797H365.802V76.0812H329.742V107.127H368.981V117.302L368.923 117.359ZM434.802 117.359L422.782 81.9781C422.493 81.4 422.204 80.9953 421.973 80.7063C421.742 80.4172 421.164 80.3016 420.355 80.3016H397.875L397.991 117.417H386.086V26.4781L424.284 25.9C430.757 25.7844 435.611 27.2297 438.905 30.1781C442.141 33.1266 443.759 37.6938 443.759 43.7641V62.0906C443.759 67.525 442.372 71.7453 439.598 74.7516C437.576 76.9484 434.744 78.5094 431.104 79.3187C431.681 79.7234 432.259 80.1281 432.722 80.6484C434.051 82.2672 435.264 84.6375 436.305 87.8172L446.591 117.302H434.686L434.802 117.359ZM514.261 59.8359C514.261 65.9641 512.643 70.3578 509.407 73.0172C506.171 75.6766 501.317 77.0062 494.787 77.0062H471.902C470.862 77.0062 470.053 77.8156 470.053 78.8563V105.334C470.053 106.375 470.862 107.184 471.902 107.184H513.106V117.359L477.45 117.938C470.978 118.053 466.123 116.608 462.829 113.659C459.593 110.711 457.975 106.144 457.975 100.073V83.7703C457.975 77.8734 459.651 73.4797 463.061 70.6469C466.47 67.8141 471.382 66.4266 477.855 66.4266H500.334C501.375 66.4266 502.184 65.6172 502.184 64.5766V38.5031C502.184 37.4625 501.375 36.6531 500.334 36.6531H460.518V26.4781L494.267 25.9C500.739 25.7844 505.709 27.3453 509.06 30.4672C512.47 33.6469 514.146 38.1562 514.146 44.0531V59.7781L514.261 59.8359Z" fill="black"/>
</g>
<defs>
<clipPath id="clip0_61_46">
<rect width="542" height="148" fill="white"/>
</clipPath>
</defs>
</svg>
