<svg width="499" height="143" viewBox="0 0 499 143" fill="none" xmlns="http://www.w3.org/2000/svg">
<g clip-path="url(#clip0_61_94)">
<path d="M40.6928 115.476C40.6928 113.43 39.8171 111.56 38.0656 109.807C36.3141 108.112 34.3874 106.71 32.2273 105.658C30.1255 104.606 27.2647 103.203 23.645 101.567C20.0252 99.9308 17.2228 98.4698 15.1794 97.3595C10.8591 94.9051 7.23932 91.574 4.32017 87.308C1.40102 83.042 -0.0585603 78.1331 -0.0585603 72.5814C-0.0585603 64.4584 2.80221 57.7379 8.52375 52.3615C14.2453 46.9852 21.1345 44.2385 29.2497 44.2385C37.365 44.2385 44.3709 47.102 50.1509 52.8875C55.9308 58.6729 58.7916 65.6272 58.7916 73.8086H41.6269C41.4518 70.3607 40.1674 67.4388 37.832 65.0428C35.4383 62.6468 32.5776 61.4196 29.2497 61.4196C25.9219 61.4196 23.0611 62.2377 21.0177 63.9324C18.9743 65.6272 17.9234 68.0816 17.9234 71.3542C17.9234 72.7567 18.3321 74.1008 19.2078 75.328C20.0836 76.6137 21.368 77.7825 23.0611 78.9512C24.7542 80.12 26.4473 81.1135 28.0237 81.9316C29.6 82.8082 31.7018 83.8601 34.3291 85.0873C36.9563 86.3145 38.9997 87.308 40.4593 88.1261C52.6613 94.7297 58.7332 103.437 58.7332 114.248C58.7332 122.196 55.8724 128.858 50.1509 134.234C44.4293 139.611 37.4234 142.357 29.1914 142.357C20.9593 142.357 14.3037 139.494 8.52375 133.708C2.74383 127.923 -0.116943 121.027 -0.116943 113.021H17.0477C17.2228 116.352 18.4489 119.216 20.7842 121.612C23.1195 124.008 25.9219 125.176 29.1914 125.176C32.4608 125.176 35.2632 124.3 37.4234 122.488C39.5252 120.677 40.6344 118.339 40.6344 115.476H40.6928Z" fill="white"/>
<path d="M65.6223 142.358V44.1802H94.9306C103.104 44.1802 110.052 47.0437 115.832 52.8291C121.612 58.6146 124.472 65.5688 124.472 73.7503V77.4319C124.472 82.9836 123.013 88.1262 119.977 92.8598C116.999 97.5933 113.029 101.158 108.125 103.613L125.173 142.416H105.44L89.8513 106.827H82.7286V142.416H65.564L65.6223 142.358ZM107.308 77.4319V73.7503C107.249 70.3024 105.965 67.3804 103.571 64.9844C101.178 62.5884 98.2585 61.3612 94.9306 61.3612H82.787V89.5872H94.9306C98.2585 89.5288 101.178 88.3016 103.63 85.9056C106.082 83.5096 107.308 80.7045 107.308 77.4319Z" fill="white"/>
<path d="M188.343 82.8662H171.179V73.1653C171.12 69.8343 169.836 66.9123 167.384 64.4579C164.932 62.0035 162.071 60.7763 158.801 60.7763C155.532 60.8347 152.671 62.1203 150.278 64.5163C147.884 66.9123 146.658 69.8343 146.658 73.1653V113.663C146.716 117.404 147.942 120.384 150.219 122.546C152.496 124.708 155.357 125.819 158.801 125.819C162.129 125.76 165.048 124.533 167.501 122.137C169.953 119.741 171.179 116.936 171.179 113.663V103.729H188.343V113.663C188.343 121.67 185.483 128.565 179.703 134.351C173.923 140.136 166.975 143 158.801 143C150.628 143 143.914 140.136 138.134 134.351C132.354 128.565 129.493 121.67 129.493 113.663V73.1653C129.493 64.9839 132.354 58.0296 138.134 52.2442C143.914 46.4587 150.803 43.5952 158.801 43.5952C166.8 43.5952 173.923 46.4587 179.703 52.2442C185.483 58.0296 188.343 64.9839 188.343 73.1653V82.8662Z" fill="white"/>
<path d="M253.908 142.358H236.744V101.859H212.223V142.358H195.058V44.1802H212.223V84.6783H236.744V44.1802H253.908V142.358Z" fill="white"/>
<path d="M280.88 125.177H313.984V142.358H263.716V44.1802H313.984V61.3612H280.88V84.6783H313.984V101.859H280.88V125.177Z" fill="white"/>
<path d="M321.983 142.358V44.1802H351.291C359.465 44.1802 366.412 47.0437 372.192 52.8291C377.972 58.6146 380.833 65.5688 380.833 73.7503V77.4319C380.833 82.9836 379.373 88.1262 376.337 92.8598C373.36 97.5933 369.39 101.158 364.486 103.613L381.533 142.416H361.8L346.212 106.827H339.089V142.416H321.924L321.983 142.358ZM363.668 77.4319V73.7503C363.61 70.3024 362.325 67.3804 359.932 64.9844C357.538 62.5884 354.619 61.3612 351.291 61.3612H339.147V89.5872H351.291C354.619 89.5288 357.538 88.3016 359.99 85.9056C362.442 83.5096 363.668 80.7045 363.668 77.4319Z" fill="white"/>
<path d="M425.904 115.476C425.904 113.43 425.028 111.56 423.277 109.807C421.526 108.112 419.599 106.71 417.439 105.658C415.337 104.606 412.476 103.203 408.856 101.567C405.237 99.8724 402.434 98.4698 400.391 97.3595C396.071 94.9051 392.451 91.574 389.532 87.308C386.612 83.042 385.153 78.1331 385.153 72.5814C385.153 64.4584 388.014 57.7379 393.735 52.3615C399.457 46.9852 406.346 44.2385 414.461 44.2385C422.576 44.2385 429.582 47.102 435.362 52.8875C441.142 58.6729 444.003 65.6272 444.003 73.8086H426.838C426.663 70.3607 425.379 67.4388 423.043 65.0428C420.708 62.6468 417.789 61.4196 414.461 61.4196C411.133 61.4196 408.273 62.2377 406.229 63.9324C404.186 65.6272 403.135 68.0816 403.135 71.3542C403.135 72.7567 403.544 74.1008 404.419 75.328C405.295 76.6137 406.579 77.7825 408.273 78.9512C409.966 80.12 411.659 81.1135 413.235 81.9316C414.811 82.8082 416.913 83.8601 419.54 85.0873C422.168 86.3145 424.211 87.308 425.671 88.1261C437.873 94.7297 443.945 103.437 443.945 114.248C443.945 122.196 441.084 128.858 435.362 134.234C429.641 139.611 422.635 142.357 414.403 142.357C406.171 142.357 399.515 139.494 393.735 133.708C387.955 127.923 385.094 121.027 385.094 113.021H402.259C402.434 116.352 403.66 119.216 405.996 121.612C408.331 124.008 411.133 125.176 414.403 125.176C417.672 125.176 420.475 124.3 422.635 122.488C424.737 120.677 425.846 118.339 425.846 115.476H425.904Z" fill="white"/>
<path d="M487.615 11.9211L487.031 11.7458L486.856 11.1614C486.097 8.76544 484.754 6.6032 482.886 4.67471C479.733 1.51901 475.997 -0.0588379 471.501 -0.0588379C467.006 -0.0588379 463.269 1.40213 460.175 4.38252C458.073 6.36944 456.672 8.707 456.03 11.3368L455.854 11.9211L455.271 12.0965C452.877 12.8562 450.717 14.2003 448.79 16.0703C445.637 19.226 444.061 22.9661 444.061 27.4659C444.061 31.9657 445.521 35.7058 448.498 38.803C450.425 40.8484 452.76 42.2509 455.446 42.9522L456.03 43.1275L456.205 43.7119C456.964 46.1079 458.307 48.2701 460.233 50.1986C463.386 53.3543 467.064 54.9322 471.501 54.9322C475.938 54.9322 479.791 53.4712 482.944 50.4908C485.046 48.5039 486.447 46.1663 487.089 43.5366L487.265 42.9522L487.848 42.7769C490.242 42.0172 492.402 40.6731 494.329 38.7446C497.482 35.5889 499.058 31.9072 499.058 27.4659C499.058 23.0245 497.598 19.1091 494.621 16.0119C492.636 13.9081 490.3 12.5055 487.673 11.8627L487.615 11.9211ZM465.955 9.52514C467.356 8.4148 469.166 7.83042 471.443 7.83042C473.72 7.83042 475.646 8.64856 477.223 10.2848C477.515 10.577 477.748 10.9277 477.982 11.2199L478.799 12.2718L477.631 12.8562C474.829 14.2587 472.318 16.83 470.1 20.5117L469.516 21.4467L468.115 20.5701C468.115 20.5701 467.531 20.2195 467.239 20.0441C466.13 19.2844 465.254 18.4663 464.67 17.6482C464.028 16.7131 463.736 15.7197 463.736 14.7262C463.736 12.5055 464.495 10.7524 465.896 9.52514H465.955ZM461.693 34.3032C460.759 34.9461 459.766 35.2383 458.774 35.2383C456.555 35.2383 454.804 34.4786 453.578 33.076C452.468 31.6735 451.884 29.8619 451.884 27.5828C451.884 25.3036 452.702 23.3752 454.336 21.7973C454.57 21.5636 454.804 21.3882 455.037 21.2129L456.146 20.3948L456.847 21.5051C457.139 22.2064 457.489 22.7908 457.898 23.3752C459.474 25.7127 461.518 27.5828 463.853 28.9269L465.196 29.6281L464.612 31.0891C464.612 31.0891 464.378 31.4982 464.203 31.7319C463.444 32.8423 462.627 33.7189 461.809 34.3032H461.693ZM476.931 45.3482C475.471 46.5754 473.661 47.1598 471.443 47.1598C469.224 47.1598 467.356 46.3417 465.78 44.7638C465.546 44.5301 465.371 44.2379 465.137 44.0041L464.32 42.8938L465.488 42.2509C466.188 41.9587 466.83 41.5497 467.414 41.199C469.75 39.6212 471.618 37.6343 472.961 35.2383L473.661 33.8942L474.712 34.3617C475.763 35.0045 476.58 35.6473 477.339 36.3486C478.565 37.5758 479.208 38.9199 479.208 40.4393C479.208 42.4263 478.449 44.121 476.989 45.3482H476.931ZM488.782 33.2513C488.491 33.5435 488.14 33.7773 487.848 34.0695L486.797 34.8876L486.214 33.7189C484.812 30.9138 482.244 28.3425 478.624 26.1802L477.69 25.6543L478.215 24.7193C478.857 23.5505 479.616 22.6155 480.375 21.7973C481.601 20.5701 482.944 19.9273 484.462 19.9273C486.447 19.9273 488.082 20.687 489.366 22.1479C490.592 23.6089 491.176 25.4205 491.176 27.6412C491.176 29.8619 490.359 31.7319 488.782 33.3098V33.2513Z" fill="white"/>
</g>
<defs>
<clipPath id="clip0_61_94">
<rect width="499" height="143" fill="white"/>
</clipPath>
</defs>
</svg>
