<svg width="519" height="99" viewBox="0 0 519 99" fill="none" xmlns="http://www.w3.org/2000/svg">
<g clip-path="url(#clip0_61_17)">
<path d="M38.7348 43.1769H14.7896C13.4894 43.1769 12.7852 42.5268 12.7852 41.1724V13.4351C12.7852 12.1349 13.4353 11.4306 14.7896 11.4306H57.2083V0.595749L21.1822 -0.000170165C14.3021 -0.108519 9.04714 1.51672 5.41745 4.87553C1.78776 8.23435 0 13.0559 0 19.3943V36.1884C0 42.6893 1.73358 47.4025 5.20075 50.2196C8.66792 53.0908 13.8687 54.4994 20.7488 54.4994H45.1273C46.4275 54.4994 47.1318 55.1495 47.1318 56.5038V84.7287C47.1318 86.0289 46.4817 86.7332 45.1273 86.7332H1.19184V97.5681L39.1682 98.164C46.1025 98.2724 51.2491 96.7555 54.7162 93.6134C58.1834 90.4712 59.917 85.6497 59.917 79.1488V61.7587C59.917 55.4745 58.1292 50.8155 54.4995 47.7817C50.8698 44.8021 45.6149 43.2852 38.6806 43.2852L38.7348 43.1769Z" fill="white"/>
<path d="M126.605 58.4544C126.118 57.8585 125.468 57.4793 124.872 56.9917C128.718 56.0708 131.752 54.4997 133.919 52.116C136.844 48.9197 138.361 44.4232 138.361 38.6266V19.1238C138.361 12.6228 136.628 7.80129 133.161 4.65917C129.693 1.4087 124.547 -0.108185 117.613 0.000164419L76.8733 0.596084V97.4601H89.5501L89.3876 57.9669H113.333C114.254 57.9669 114.85 58.1294 115.066 58.4003C115.337 58.7253 115.608 59.1587 115.933 59.7546L128.772 97.4601H141.449L130.452 66.0389C129.314 62.68 128.068 60.1338 126.66 58.4003L126.605 58.4544ZM89.3876 47.457V10.8351H123.572C124.872 10.8351 125.576 11.4852 125.576 12.8395V45.5067C125.576 46.8069 124.926 47.5112 123.572 47.5112H89.3876V47.457Z" fill="white"/>
<path d="M160.952 4.60413C157.81 7.25868 156.239 11.701 156.239 18.0394V80.1234C156.239 86.3534 157.81 90.7957 160.952 93.4503C164.094 96.159 169.024 97.5134 175.742 97.5134H209.438V86.2451H170.541C169.512 86.2451 169.024 85.8117 169.024 84.8907V13.272C169.024 12.3511 169.512 11.9177 170.541 11.9177H209.438V0.595215H175.742C169.024 0.595215 164.094 1.8954 160.952 4.54995V4.60413Z" fill="white"/>
<path d="M277.157 42.8513H235.984V0.595215H223.632V97.4592H235.984V53.6862H277.157V97.4592H289.508V0.595215H277.157V42.8513Z" fill="white"/>
<path d="M321.796 53.5237H360.26V42.8513H321.796V11.4301H362.861V0.595215H323.692C315.837 0.595215 309.499 6.93363 309.499 14.7889V82.4529C309.499 90.7416 316.216 97.405 324.451 97.405H363.619V86.5701H321.796V53.4695V53.5237Z" fill="white"/>
<path d="M431.662 58.4545C431.175 57.8586 430.525 57.4793 429.929 56.9918C433.775 56.0708 436.809 54.4997 438.976 52.1161C441.901 48.9198 443.418 44.4233 443.418 38.6266V19.1238C443.418 12.6229 441.685 7.80134 438.217 4.65922C434.75 1.5171 429.55 0.000217892 422.669 0.108567L381.93 0.704486V97.5685H394.607L394.444 58.0753H418.39C419.311 58.0753 419.907 58.2378 420.123 58.5087C420.394 58.8337 420.665 59.2671 420.99 59.863L433.829 97.5685H446.506L435.509 66.1473C434.371 62.7884 433.125 60.2422 431.717 58.5087L431.662 58.4545ZM394.444 47.4571V10.8351H428.629C429.929 10.8351 430.633 11.4852 430.633 12.8396V45.5068C430.633 46.807 429.983 47.5112 428.629 47.5112H394.444V47.4571Z" fill="white"/>
<path d="M473.323 54.445H497.701C504.635 54.445 509.782 53.0365 513.249 50.1653C516.716 47.294 518.45 42.635 518.45 36.1341V19.34C518.45 13.0557 516.662 8.18003 513.032 4.82121C509.403 1.46239 504.148 -0.16284 497.214 -0.0544915L461.242 0.541428V11.3763H503.66C504.96 11.3763 505.665 12.0264 505.665 13.3808V41.1181C505.665 42.4183 505.015 43.1226 503.66 43.1226H479.715C472.781 43.1226 467.526 44.6395 463.896 47.6191C460.267 50.5987 458.479 55.2577 458.479 61.5961V78.9861C458.479 85.487 460.212 90.3085 463.68 93.4507C467.147 96.5928 472.347 98.1097 479.228 98.0013L517.204 97.4054V86.5705H473.268C471.968 86.5705 471.264 85.9204 471.264 84.5661V56.3411C471.264 55.041 471.914 54.3367 473.268 54.3367L473.323 54.445Z" fill="white"/>
</g>
<defs>
<clipPath id="clip0_61_17">
<rect width="518.504" height="98.11" fill="white"/>
</clipPath>
</defs>
</svg>
